<?xml version="1.0" encoding="UTF-8" ?>
<!DOCTYPE svg PUBLIC "-//W3C//DTD SVG 1.1//EN" "http://www.w3.org/Graphics/SVG/1.1/DTD/svg11.dtd">
<svg width="290pt" height="290pt" viewBox="0 0 290 290" version="1.1" xmlns="http://www.w3.org/2000/svg">
<g id="#ffffff00">
<path fill="#ffffff00" opacity="0.00" d=" M 0.00 0.00 L 290.00 0.00 L 290.00 138.56 C 289.53 135.02 289.16 131.47 288.84 127.92 C 284.96 94.74 268.99 63.15 244.60 40.32 C 224.61 21.34 199.09 8.28 171.95 3.32 C 143.57 -2.03 113.58 1.39 87.17 13.10 C 55.97 26.64 30.04 51.73 15.31 82.36 C 1.78 109.91 -2.34 141.86 3.37 171.99 C 9.73 207.11 30.06 239.14 58.44 260.64 C 74.78 273.35 94.27 281.46 114.27 286.42 C 134.44 290.38 155.40 290.62 175.56 286.39 C 196.37 281.93 216.40 273.03 233.20 259.92 C 260.35 239.13 279.91 208.52 286.75 174.98 C 288.36 167.90 288.91 160.66 290.00 153.50 L 290.00 290.00 L 0.00 290.00 L 0.00 0.00 Z" />
</g>
<g id="#94c8d5ff">
<path fill="#94c8d5" opacity="1.00" d=" M 87.17 13.10 C 113.58 1.39 143.57 -2.03 171.95 3.32 C 199.09 8.28 224.61 21.34 244.60 40.32 C 268.99 63.15 284.96 94.74 288.84 127.92 C 289.16 131.47 289.53 135.02 290.00 138.56 L 290.00 153.50 C 288.91 160.66 288.36 167.90 286.75 174.98 C 279.91 208.52 260.35 239.13 233.20 259.92 C 229.90 255.00 226.29 250.16 221.51 246.56 C 215.74 241.87 208.56 239.41 201.40 237.77 C 208.19 235.63 214.82 232.14 219.27 226.44 C 222.77 222.23 224.58 216.95 225.69 211.66 C 233.97 205.97 242.48 199.09 245.50 189.09 C 248.23 180.79 244.44 172.11 239.82 165.28 C 235.28 158.60 229.41 153.00 224.21 146.87 C 221.62 144.19 221.88 140.24 222.43 136.85 C 224.03 126.77 226.52 116.63 225.52 106.36 C 223.64 87.77 213.99 70.28 199.88 58.15 C 187.36 47.44 171.31 41.31 154.99 39.76 C 137.21 37.83 118.29 40.22 102.94 49.92 C 87.40 59.66 76.83 75.79 71.12 92.97 C 69.15 99.16 67.31 105.50 66.99 112.02 C 66.84 120.71 68.70 129.33 68.42 138.02 C 67.97 146.26 62.79 153.47 56.44 158.38 C 54.21 160.14 51.55 161.42 49.68 163.61 C 45.07 169.90 43.12 178.24 45.21 185.84 C 47.77 195.90 54.79 203.99 62.30 210.82 C 64.16 214.98 63.81 219.97 66.05 224.09 C 69.44 231.84 76.89 236.76 84.74 239.19 C 73.53 242.47 64.14 250.53 58.44 260.64 C 30.06 239.14 9.73 207.11 3.37 171.99 C -2.34 141.86 1.78 109.91 15.31 82.36 C 30.04 51.73 55.97 26.64 87.17 13.10 Z" />
</g>
<g id="#684b45ff">
<path fill="#684b45" opacity="1.00" d=" M 102.94 49.92 C 118.29 40.22 137.21 37.83 154.99 39.76 C 171.31 41.31 187.36 47.44 199.88 58.15 C 213.99 70.28 223.64 87.77 225.52 106.36 C 226.52 116.63 224.03 126.77 222.43 136.85 C 221.88 140.24 221.62 144.19 224.21 146.87 C 229.41 153.00 235.28 158.60 239.82 165.28 C 244.44 172.11 248.23 180.79 245.50 189.09 C 242.48 199.09 233.97 205.97 225.69 211.66 C 224.58 216.95 222.77 222.23 219.27 226.44 C 214.82 232.14 208.19 235.63 201.40 237.77 C 196.57 237.26 191.71 237.01 186.86 236.92 C 183.63 232.14 179.08 228.40 176.02 223.50 C 176.10 219.11 176.21 214.73 176.24 210.34 C 186.17 202.55 193.53 191.72 197.41 179.73 C 203.39 179.49 209.44 176.94 212.77 171.80 C 217.35 165.36 216.41 155.82 210.72 150.35 C 207.45 146.70 202.35 146.02 198.38 143.43 C 188.29 137.64 180.18 129.10 172.67 120.35 C 159.12 104.08 147.68 86.20 136.90 68.01 C 127.38 89.45 117.87 111.14 104.33 130.41 C 100.60 136.02 95.60 140.55 90.39 144.74 C 86.00 145.62 81.43 146.91 78.32 150.35 C 71.84 156.46 71.73 167.67 78.01 173.95 C 81.96 178.40 88.08 179.88 93.83 179.67 C 97.57 192.23 105.14 203.58 115.37 211.77 C 117.29 215.17 115.89 219.65 116.46 223.47 C 113.10 228.17 108.79 232.11 105.55 236.91 C 98.57 237.12 91.52 237.30 84.74 239.19 C 76.89 236.76 69.44 231.84 66.05 224.09 C 63.81 219.97 64.16 214.98 62.30 210.82 C 54.79 203.99 47.77 195.90 45.21 185.84 C 43.12 178.24 45.07 169.90 49.68 163.61 C 51.55 161.42 54.21 160.14 56.44 158.38 C 62.79 153.47 67.97 146.26 68.42 138.02 C 68.70 129.33 66.84 120.71 66.99 112.02 C 67.31 105.50 69.15 99.16 71.12 92.97 C 76.83 75.79 87.40 59.66 102.94 49.92 Z" />
</g>
<g id="#ffd1b2ff">
<path fill="#ffd1b2" opacity="1.00" d=" M 104.33 130.41 C 117.87 111.14 127.38 89.45 136.90 68.01 C 147.68 86.20 159.12 104.08 172.67 120.35 C 180.18 129.10 188.29 137.64 198.38 143.43 C 202.35 146.02 207.45 146.70 210.72 150.35 C 216.41 155.82 217.35 165.36 212.77 171.80 C 209.44 176.94 203.39 179.49 197.41 179.73 C 193.53 191.72 186.17 202.55 176.24 210.34 C 176.21 214.73 176.10 219.11 176.02 223.50 C 165.85 232.29 156.15 241.64 146.37 250.88 C 136.33 241.82 126.83 232.14 116.46 223.47 C 115.89 219.65 117.29 215.17 115.37 211.77 C 105.14 203.58 97.57 192.23 93.83 179.67 C 88.08 179.88 81.96 178.40 78.01 173.95 C 71.73 167.67 71.84 156.46 78.32 150.35 C 81.43 146.91 86.00 145.62 90.39 144.74 C 95.60 140.55 100.60 136.02 104.33 130.41 Z" />
</g>
<g id="#74f6f1ff">
<path fill="#74f6f1" opacity="1.00" d=" M 116.46 223.47 C 126.83 232.14 136.33 241.82 146.37 250.88 C 156.15 241.64 165.85 232.29 176.02 223.50 C 179.08 228.40 183.63 232.14 186.86 236.92 C 185.12 239.22 184.85 242.17 184.24 244.89 C 181.40 258.74 178.59 272.59 175.56 286.39 C 155.40 290.62 134.44 290.38 114.27 286.42 C 114.79 286.32 115.84 286.14 116.37 286.05 C 113.84 275.08 111.75 264.02 109.35 253.02 C 108.10 247.65 107.54 242.09 105.55 236.91 C 108.79 232.11 113.10 228.17 116.46 223.47 Z" />
</g>
<g id="#f67762ff">
<path fill="#f67762" opacity="1.00" d=" M 84.74 239.19 C 91.52 237.30 98.57 237.12 105.55 236.91 C 107.54 242.09 108.10 247.65 109.35 253.02 C 111.75 264.02 113.84 275.08 116.37 286.05 C 115.84 286.14 114.79 286.32 114.27 286.42 C 94.27 281.46 74.78 273.35 58.44 260.64 C 64.14 250.53 73.53 242.47 84.74 239.19 Z" />
<path fill="#f67762" opacity="1.00" d=" M 186.86 236.92 C 191.71 237.01 196.57 237.26 201.40 237.77 C 208.56 239.41 215.74 241.87 221.51 246.56 C 226.29 250.16 229.90 255.00 233.20 259.92 C 216.40 273.03 196.37 281.93 175.56 286.39 C 178.59 272.59 181.40 258.74 184.24 244.89 C 184.85 242.17 185.12 239.22 186.86 236.92 Z" />
</g>
</svg>
