<?xml version="1.0" encoding="UTF-8" ?>
<!DOCTYPE svg PUBLIC "-//W3C//DTD SVG 1.1//EN" "http://www.w3.org/Graphics/SVG/1.1/DTD/svg11.dtd">
<svg width="290pt" height="290pt" viewBox="0 0 290 290" version="1.1" xmlns="http://www.w3.org/2000/svg">
<g id="#ffffff00">
<path fill="#ffffff00" opacity="0.00" d=" M 0.00 0.00 L 290.00 0.00 L 290.00 290.00 L 0.00 290.00 L 0.00 0.00 M 123.00 2.07 C 76.42 8.53 34.38 39.84 14.35 82.32 C 6.71 97.53 2.86 114.25 0.45 131.00 C 1.51 140.28 1.06 149.70 0.68 159.00 C 1.86 168.80 3.67 178.55 6.86 187.92 C 15.71 217.41 34.93 243.27 59.53 261.59 C 66.57 266.36 73.78 270.91 81.41 274.69 C 92.57 279.95 104.34 284.00 116.46 286.39 L 116.31 286.65 C 125.53 287.71 134.69 289.27 144.00 289.38 C 153.56 289.00 163.13 288.47 172.50 286.38 C 184.74 284.14 196.80 280.19 207.82 274.45 C 215.84 270.87 223.33 266.11 230.40 260.92 C 261.40 238.42 282.39 202.96 287.76 165.08 C 288.83 158.45 288.79 151.71 289.41 145.03 C 289.74 141.70 289.00 138.42 288.66 135.12 C 287.90 117.28 283.02 99.74 275.54 83.59 C 255.00 38.90 210.10 6.26 161.05 1.40 C 158.98 1.29 157.05 0.12 154.97 0.37 C 149.06 1.47 143.00 1.01 137.02 0.95 C 132.30 -0.08 127.68 1.63 123.00 2.07 Z" />
</g>
<g id="#94c8d5ff">
<path fill="#94c8d5" opacity="1.00" d=" M 123.00 2.07 C 127.68 1.63 132.30 -0.08 137.02 0.95 C 143.00 1.01 149.06 1.47 154.97 0.37 C 157.05 0.12 158.98 1.29 161.05 1.40 C 210.10 6.26 255.00 38.90 275.54 83.59 C 283.02 99.74 287.90 117.28 288.66 135.12 C 289.00 138.42 289.74 141.70 289.41 145.03 C 288.79 151.71 288.83 158.45 287.76 165.08 C 282.39 202.96 261.40 238.42 230.40 260.92 C 225.87 252.06 219.09 244.08 210.05 239.63 C 202.06 235.26 192.81 235.00 183.95 234.70 C 180.72 230.31 177.12 226.16 173.25 222.32 C 174.36 218.00 173.42 213.47 173.86 209.07 C 185.92 200.12 193.73 186.11 196.04 171.36 C 201.10 170.87 206.10 168.41 208.86 164.02 C 213.09 158.11 212.07 149.53 207.46 144.12 C 209.07 137.21 210.05 130.14 209.83 123.03 C 209.64 113.39 210.29 103.71 209.30 94.10 C 207.46 78.98 199.65 64.73 188.08 54.85 C 186.30 53.33 184.20 52.06 183.02 49.97 C 181.64 47.70 180.63 45.17 178.68 43.31 C 174.98 39.29 169.37 37.64 164.03 37.64 C 157.33 37.64 150.63 37.98 143.94 38.18 C 138.13 38.48 132.57 35.51 128.47 31.59 C 125.80 29.17 125.56 25.40 125.78 22.04 C 117.11 24.80 107.54 28.48 102.98 36.97 C 99.59 42.71 101.89 49.56 101.82 55.72 C 93.03 64.37 85.93 75.07 83.20 87.24 C 80.53 97.29 81.61 107.74 81.41 118.00 C 81.26 125.73 81.38 133.51 83.10 141.09 C 79.25 143.93 75.92 148.04 75.67 153.01 C 74.49 160.21 79.08 167.69 85.84 170.23 C 88.18 171.18 90.79 171.04 93.19 171.83 C 95.54 187.18 103.76 201.78 116.28 211.11 C 117.03 214.88 114.91 219.65 117.68 222.74 C 115.84 222.79 114.78 224.41 113.64 225.63 C 111.10 228.72 108.39 231.67 106.01 234.89 C 97.16 234.76 87.90 235.51 79.88 239.58 C 70.91 244.31 63.14 252.00 59.53 261.59 C 34.93 243.27 15.71 217.41 6.86 187.92 C 3.67 178.55 1.86 168.80 0.68 159.00 C 1.06 149.70 1.51 140.28 0.45 131.00 C 2.86 114.25 6.71 97.53 14.35 82.32 C 34.38 39.84 76.42 8.53 123.00 2.07 Z" />
</g>
<g id="#684b45ff">
<path fill="#684b45" opacity="1.00" d=" M 102.98 36.97 C 107.54 28.48 117.11 24.80 125.78 22.04 C 125.56 25.40 125.80 29.17 128.47 31.59 C 132.57 35.51 138.13 38.48 143.94 38.18 C 150.63 37.98 157.33 37.64 164.03 37.64 C 169.37 37.64 174.98 39.29 178.68 43.31 C 180.63 45.17 181.64 47.70 183.02 49.97 C 184.20 52.06 186.30 53.33 188.08 54.85 C 199.65 64.73 207.46 78.98 209.30 94.10 C 210.29 103.71 209.64 113.39 209.83 123.03 C 210.05 130.14 209.07 137.21 207.46 144.12 C 204.76 141.15 201.05 139.40 197.18 138.57 C 197.12 129.45 198.70 120.07 195.86 111.19 C 190.72 93.48 175.23 79.65 157.53 75.17 C 153.80 81.23 147.29 85.97 139.98 86.08 C 132.08 86.82 124.64 83.59 117.79 80.08 C 105.07 86.27 95.90 99.09 92.83 112.84 C 90.87 121.28 92.39 129.96 91.87 138.50 C 88.81 138.81 85.74 139.44 83.10 141.09 C 81.38 133.51 81.26 125.73 81.41 118.00 C 81.61 107.74 80.53 97.29 83.20 87.24 C 85.93 75.07 93.03 64.37 101.82 55.72 C 101.89 49.56 99.59 42.71 102.98 36.97 Z" />
</g>
<g id="#ffd2b3ff">
<path fill="#ffd2b3" opacity="1.00" d=" M 157.53 75.17 C 175.23 79.65 190.72 93.48 195.86 111.19 C 198.70 120.07 197.12 129.45 197.18 138.57 C 201.05 139.40 204.76 141.15 207.46 144.12 C 212.07 149.53 213.09 158.11 208.86 164.02 C 206.10 168.41 201.10 170.87 196.04 171.36 C 193.73 186.11 185.92 200.12 173.86 209.07 C 170.05 211.94 166.30 215.02 161.84 216.83 C 153.13 220.11 143.56 221.21 134.37 219.61 C 127.97 217.69 121.54 215.35 116.28 211.11 C 103.76 201.78 95.54 187.18 93.19 171.83 C 90.79 171.04 88.18 171.18 85.84 170.23 C 79.08 167.69 74.49 160.21 75.67 153.01 C 75.92 148.04 79.25 143.93 83.10 141.09 C 85.74 139.44 88.81 138.81 91.87 138.50 C 92.39 129.96 90.87 121.28 92.83 112.84 C 95.90 99.09 105.07 86.27 117.79 80.08 C 124.64 83.59 132.08 86.82 139.98 86.08 C 147.29 85.97 153.80 81.23 157.53 75.17 Z" />
</g>
<g id="#fbc49dff">
<path fill="#fbc49d" opacity="1.00" d=" M 161.84 216.83 C 166.30 215.02 170.05 211.94 173.86 209.07 C 173.42 213.47 174.36 218.00 173.25 222.32 C 163.88 230.88 154.36 239.32 145.48 248.39 C 145.32 248.25 144.98 247.98 144.81 247.85 C 135.72 239.54 126.89 230.93 117.68 222.74 C 114.91 219.65 117.03 214.88 116.28 211.11 C 121.54 215.35 127.97 217.69 134.37 219.61 C 143.56 221.21 153.13 220.11 161.84 216.83 Z" />
</g>
<g id="#4df4edff">
<path fill="#4df4ed" opacity="1.00" d=" M 113.64 225.63 C 114.78 224.41 115.84 222.79 117.68 222.74 C 126.89 230.93 135.72 239.54 144.81 247.85 C 138.87 254.69 132.05 260.74 125.82 267.34 C 122.85 264.69 121.63 260.79 119.47 257.54 C 115.06 250.50 111.39 243.00 107.00 235.97 C 106.76 235.70 106.26 235.16 106.01 234.89 C 108.39 231.67 111.10 228.72 113.64 225.63 Z" />
<path fill="#4df4ed" opacity="1.00" d=" M 145.48 248.39 C 154.36 239.32 163.88 230.88 173.25 222.32 C 177.12 226.16 180.72 230.31 183.95 234.70 C 183.12 235.81 182.34 236.99 182.11 238.39 C 179.47 242.37 177.40 246.69 174.75 250.67 C 171.24 256.08 168.83 262.13 164.98 267.32 C 158.18 261.33 152.31 254.35 145.48 248.39 Z" />
</g>
<g id="#6896f8ff">
<path fill="#6896f8" opacity="1.00" d=" M 79.88 239.58 C 87.90 235.51 97.16 234.76 106.01 234.89 C 106.26 235.16 106.76 235.70 107.00 235.97 C 109.79 250.69 113.02 265.33 116.11 280.00 C 116.34 282.06 117.79 284.46 116.46 286.39 C 104.34 284.00 92.57 279.95 81.41 274.69 C 82.21 271.50 81.35 268.25 81.37 265.03 C 81.25 256.70 81.43 248.36 81.00 240.03 L 79.88 239.58 Z" />
<path fill="#6896f8" opacity="1.00" d=" M 182.11 238.39 C 182.34 236.99 183.12 235.81 183.95 234.70 C 192.81 235.00 202.06 235.26 210.05 239.63 L 208.93 240.00 C 207.87 251.46 208.87 262.99 207.82 274.45 C 196.80 280.19 184.74 284.14 172.50 286.38 C 174.83 275.23 177.13 264.07 179.30 252.88 C 180.34 248.07 181.75 243.32 182.11 238.39 Z" />
</g>
<g id="#93f8f4ff">
<path fill="#93f8f4" opacity="1.00" d=" M 107.00 235.97 C 111.39 243.00 115.06 250.50 119.47 257.54 C 121.63 260.79 122.85 264.69 125.82 267.34 C 132.05 260.74 138.87 254.69 144.81 247.85 C 144.98 247.98 145.32 248.25 145.48 248.39 C 152.31 254.35 158.18 261.33 164.98 267.32 C 168.83 262.13 171.24 256.08 174.75 250.67 C 177.40 246.69 179.47 242.37 182.11 238.39 C 181.75 243.32 180.34 248.07 179.30 252.88 C 177.13 264.07 174.83 275.23 172.50 286.38 C 163.13 288.47 153.56 289.00 144.00 289.38 C 134.69 289.27 125.53 287.71 116.31 286.65 L 116.46 286.39 C 117.79 284.46 116.34 282.06 116.11 280.00 C 113.02 265.33 109.79 250.69 107.00 235.97 Z" />
</g>
<g id="#3670edff">
<path fill="#3670ed" opacity="1.00" d=" M 59.53 261.59 C 63.14 252.00 70.91 244.31 79.88 239.58 L 81.00 240.03 C 81.43 248.36 81.25 256.70 81.37 265.03 C 81.35 268.25 82.21 271.50 81.41 274.69 C 73.78 270.91 66.57 266.36 59.53 261.59 Z" />
<path fill="#3670ed" opacity="1.00" d=" M 208.93 240.00 L 210.05 239.63 C 219.09 244.08 225.87 252.06 230.40 260.92 C 223.33 266.11 215.84 270.87 207.82 274.45 C 208.87 262.99 207.87 251.46 208.93 240.00 Z" />
</g>
</svg>
