<?xml version="1.0" encoding="UTF-8" ?>
<!DOCTYPE svg PUBLIC "-//W3C//DTD SVG 1.1//EN" "http://www.w3.org/Graphics/SVG/1.1/DTD/svg11.dtd">
<svg width="290pt" height="290pt" viewBox="0 0 290 290" version="1.1" xmlns="http://www.w3.org/2000/svg">
<g id="#ffffff00">
<path fill="#ffffff00" opacity="0.00" d=" M 0.00 0.00 L 290.00 0.00 L 290.00 138.74 C 288.48 112.68 280.48 86.89 265.84 65.19 C 246.85 36.50 217.28 14.99 184.09 5.92 C 155.95 -1.92 125.42 -0.95 97.85 8.73 C 74.67 16.79 53.56 30.92 37.33 49.34 C 17.64 71.40 5.01 99.64 1.85 129.05 C -2.10 163.61 6.96 199.50 27.17 227.84 C 41.00 247.96 60.32 263.98 82.07 274.91 C 121.45 294.53 170.11 294.53 209.37 274.61 C 239.57 259.54 264.42 233.88 277.87 202.87 C 285.09 186.69 288.82 169.15 290.00 151.52 L 290.00 290.00 L 0.00 290.00 L 0.00 0.00 Z" />
</g>
<g id="#92a7d2ff">
<path fill="#92a7d2" opacity="1.00" d=" M 97.85 8.73 C 125.42 -0.95 155.95 -1.92 184.09 5.92 C 217.28 14.99 246.85 36.50 265.84 65.19 C 280.48 86.89 288.48 112.68 290.00 138.74 L 290.00 151.52 C 288.82 169.15 285.09 186.69 277.87 202.87 C 264.42 233.88 239.57 259.54 209.37 274.61 C 207.73 272.33 206.21 269.89 203.98 268.12 C 192.90 259.75 178.88 255.27 165.00 255.77 C 164.59 248.17 164.47 240.55 165.09 232.96 C 185.06 226.53 200.71 210.67 209.84 192.13 C 221.64 197.25 235.11 187.59 237.74 175.87 C 239.43 169.25 240.50 161.83 237.57 155.40 C 236.38 152.57 233.67 150.93 231.26 149.26 C 239.34 130.66 241.93 109.29 236.44 89.61 C 233.19 77.56 226.27 66.44 216.48 58.64 C 203.50 48.06 187.09 42.77 170.72 40.38 C 174.67 36.38 179.44 32.92 185.26 32.57 C 175.28 30.66 162.69 27.93 154.71 36.09 C 150.62 31.02 145.18 26.63 138.60 25.51 C 133.86 24.68 129.32 26.76 125.16 28.75 C 131.37 30.72 137.89 33.43 141.55 39.15 C 127.07 39.97 112.45 41.68 98.80 46.85 C 88.18 50.78 78.27 57.26 71.60 66.54 C 63.99 77.22 59.85 90.07 58.04 102.96 C 55.72 118.33 58.35 134.03 63.07 148.69 C 58.94 149.76 54.92 152.17 53.34 156.34 C 50.75 163.28 52.13 171.00 54.22 177.90 C 57.59 188.66 69.77 196.35 80.89 192.63 C 91.35 209.93 106.61 225.18 125.79 232.39 C 126.64 240.10 126.36 247.87 125.79 255.59 C 111.58 255.49 97.18 260.02 86.12 269.07 C 84.31 270.65 83.25 272.87 82.07 274.91 C 60.32 263.98 41.00 247.96 27.17 227.84 C 6.96 199.50 -2.10 163.61 1.85 129.05 C 5.01 99.64 17.64 71.40 37.33 49.34 C 53.56 30.92 74.67 16.79 97.85 8.73 Z" />
</g>
<g id="#684b45ff">
<path fill="#684b45" opacity="1.00" d=" M 125.16 28.75 C 129.32 26.76 133.86 24.68 138.60 25.51 C 145.18 26.63 150.62 31.02 154.71 36.09 C 162.69 27.93 175.28 30.66 185.26 32.57 C 179.44 32.92 174.67 36.38 170.72 40.38 C 187.09 42.77 203.50 48.06 216.48 58.64 C 226.27 66.44 233.19 77.56 236.44 89.61 C 241.93 109.29 239.34 130.66 231.26 149.26 C 230.49 150.95 229.68 152.64 228.83 154.30 C 226.66 158.44 224.26 162.46 221.53 166.25 C 221.51 165.50 221.45 164.01 221.43 163.26 C 221.92 154.85 220.00 146.03 214.38 139.53 C 208.33 131.91 198.61 128.06 189.03 127.95 C 160.89 123.93 132.19 123.41 104.06 127.84 C 94.38 128.06 84.48 131.62 78.29 139.36 C 71.84 146.65 70.38 156.78 71.08 166.18 C 70.66 165.41 69.82 163.87 69.40 163.10 C 67.75 159.84 66.07 156.61 64.71 153.22 C 64.13 151.72 63.58 150.21 63.07 148.69 C 58.35 134.03 55.72 118.33 58.04 102.96 C 59.85 90.07 63.99 77.22 71.60 66.54 C 78.27 57.26 88.18 50.78 98.80 46.85 C 112.45 41.68 127.07 39.97 141.55 39.15 C 137.89 33.43 131.37 30.72 125.16 28.75 Z" />
</g>
<g id="#fce3c5ff">
<path fill="#fce3c5" opacity="1.00" d=" M 104.06 127.84 C 132.19 123.41 160.89 123.93 189.03 127.95 C 198.61 128.06 208.33 131.91 214.38 139.53 C 220.00 146.03 221.92 154.85 221.43 163.26 C 219.90 164.41 219.03 166.05 218.73 167.90 C 217.28 174.58 214.54 180.86 212.45 187.33 C 217.26 189.84 223.13 188.50 227.21 185.23 C 233.59 180.76 235.24 172.29 235.24 165.00 C 235.29 160.46 232.95 156.29 228.83 154.30 C 229.68 152.64 230.49 150.95 231.26 149.26 C 233.67 150.93 236.38 152.57 237.57 155.40 C 240.50 161.83 239.43 169.25 237.74 175.87 C 235.11 187.59 221.64 197.25 209.84 192.13 C 200.71 210.67 185.06 226.53 165.09 232.96 C 164.47 240.55 164.59 248.17 165.00 255.77 C 157.81 261.14 153.15 268.96 148.86 276.66 C 147.59 279.31 146.71 282.12 145.68 284.87 C 141.51 273.78 135.99 262.32 125.79 255.59 C 126.36 247.87 126.64 240.10 125.79 232.39 C 106.61 225.18 91.35 209.93 80.89 192.63 C 69.77 196.35 57.59 188.66 54.22 177.90 C 52.13 171.00 50.75 163.28 53.34 156.34 C 54.92 152.17 58.94 149.76 63.07 148.69 C 63.58 150.21 64.13 151.72 64.71 153.22 C 60.29 155.18 56.47 158.86 56.11 163.93 C 55.68 171.92 57.58 181.52 65.04 185.91 C 68.73 188.52 73.38 188.89 77.74 188.48 C 75.28 181.35 71.29 174.82 69.44 167.47 C 68.97 166.04 69.25 164.54 69.40 163.10 C 69.82 163.87 70.66 165.41 71.08 166.18 C 70.38 156.78 71.84 146.65 78.29 139.36 C 84.48 131.62 94.38 128.06 104.06 127.84 Z" />
</g>
<g id="#f8c5aaff">
<path fill="#f8c5aa" opacity="1.00" d=" M 64.71 153.22 C 66.07 156.61 67.75 159.84 69.40 163.10 C 69.25 164.54 68.97 166.04 69.44 167.47 C 71.29 174.82 75.28 181.35 77.74 188.48 C 73.38 188.89 68.73 188.52 65.04 185.91 C 57.58 181.52 55.68 171.92 56.11 163.93 C 56.47 158.86 60.29 155.18 64.71 153.22 Z" />
<path fill="#f8c5aa" opacity="1.00" d=" M 221.53 166.25 C 224.26 162.46 226.66 158.44 228.83 154.30 C 232.95 156.29 235.29 160.46 235.24 165.00 C 235.24 172.29 233.59 180.76 227.21 185.23 C 223.13 188.50 217.26 189.84 212.45 187.33 C 214.54 180.86 217.28 174.58 218.73 167.90 C 219.03 166.05 219.90 164.41 221.43 163.26 C 221.45 164.01 221.51 165.50 221.53 166.25 Z" />
</g>
<g id="#328cf1ff">
<path fill="#328cf1" opacity="1.00" d=" M 86.12 269.07 C 97.18 260.02 111.58 255.49 125.79 255.59 C 135.99 262.32 141.51 273.78 145.68 284.87 C 146.71 282.12 147.59 279.31 148.86 276.66 C 153.15 268.96 157.81 261.14 165.00 255.77 C 178.88 255.27 192.90 259.75 203.98 268.12 C 206.21 269.89 207.73 272.33 209.37 274.61 C 170.11 294.53 121.45 294.53 82.07 274.91 C 83.25 272.87 84.31 270.65 86.12 269.07 Z" />
</g>
</svg>
