<?xml version="1.0" encoding="UTF-8" ?>
<!DOCTYPE svg PUBLIC "-//W3C//DTD SVG 1.1//EN" "http://www.w3.org/Graphics/SVG/1.1/DTD/svg11.dtd">
<svg width="290pt" height="290pt" viewBox="0 0 290 290" version="1.1" xmlns="http://www.w3.org/2000/svg">
<g id="#ffffff00">
<path fill="#ffffff00" opacity="0.00" d=" M 0.00 0.00 L 290.00 0.00 L 290.00 290.00 L 0.00 290.00 L 0.00 0.00 M 101.56 7.32 C 71.70 16.45 45.27 35.90 27.19 61.30 C 11.54 83.06 2.48 109.34 0.65 136.02 C 1.29 142.35 1.08 148.72 0.71 155.05 C 1.38 165.67 3.63 176.15 6.49 186.38 C 15.59 216.98 35.26 244.28 61.33 262.68 C 68.09 267.58 75.48 271.47 82.65 275.70 C 101.95 284.13 122.79 289.83 144.00 289.08 C 166.29 289.88 188.57 284.56 208.55 274.78 C 215.56 270.85 222.73 267.11 229.16 262.25 C 250.75 246.90 267.79 225.36 278.16 201.02 C 284.83 185.17 288.42 168.13 289.43 150.98 C 289.25 146.99 289.18 143.00 289.45 139.01 C 288.34 119.33 283.85 99.67 275.01 81.98 C 262.52 56.37 242.35 34.54 217.70 20.23 C 197.22 8.16 173.68 1.61 150.00 0.60 C 145.68 1.10 141.34 0.79 137.01 0.67 C 125.02 1.70 113.00 3.42 101.56 7.32 Z" />
</g>
<g id="#92a7d2ff">
<path fill="#92a7d2" opacity="1.00" d=" M 101.56 7.32 C 113.00 3.42 125.02 1.70 137.01 0.67 C 141.34 0.79 145.68 1.10 150.00 0.60 C 173.68 1.61 197.22 8.16 217.70 20.23 C 242.35 34.54 262.52 56.37 275.01 81.98 C 283.85 99.67 288.34 119.33 289.45 139.01 C 289.18 143.00 289.25 146.99 289.43 150.98 C 288.42 168.13 284.83 185.17 278.16 201.02 C 267.79 225.36 250.75 246.90 229.16 262.25 C 222.73 267.11 215.56 270.85 208.55 274.78 C 207.26 272.43 205.81 270.08 203.61 268.47 C 192.69 259.85 178.60 255.29 164.71 255.90 C 167.79 258.65 171.18 261.02 174.27 263.75 C 166.26 267.03 158.40 270.73 150.15 273.38 C 153.27 266.54 158.23 260.81 163.83 255.88 C 165.05 251.03 163.90 245.83 164.15 240.84 C 181.38 239.92 198.66 239.04 215.76 236.64 C 223.21 234.72 231.43 231.20 234.62 223.63 C 237.84 215.84 237.99 207.24 238.38 198.94 C 239.16 169.64 238.90 140.33 239.01 111.02 C 238.76 94.13 233.70 76.59 221.91 64.07 C 205.69 47.32 183.06 37.39 159.97 35.20 C 150.28 34.15 140.49 34.84 130.87 36.17 C 113.75 38.66 96.80 44.42 82.81 54.79 C 69.81 64.31 62.35 79.56 58.99 95.00 C 54.87 115.81 53.16 137.02 52.02 158.17 C 51.14 162.31 51.20 166.56 51.80 170.73 C 52.05 185.71 51.70 200.97 55.64 215.56 C 57.92 222.64 61.73 229.67 68.00 233.96 C 71.85 236.63 76.67 236.82 81.17 237.30 C 96.00 239.13 110.91 240.33 125.84 240.97 C 125.90 245.90 125.75 250.84 125.18 255.74 C 111.17 255.45 96.93 260.01 86.03 268.89 C 84.21 270.60 81.35 272.89 82.65 275.70 C 75.48 271.47 68.09 267.58 61.33 262.68 C 35.26 244.28 15.59 216.98 6.49 186.38 C 3.63 176.15 1.38 165.67 0.71 155.05 C 1.08 148.72 1.29 142.35 0.65 136.02 C 2.48 109.34 11.54 83.06 27.19 61.30 C 45.27 35.90 71.70 16.45 101.56 7.32 Z" />
<path fill="#92a7d2" opacity="1.00" d=" M 125.80 255.86 C 132.27 260.23 136.99 266.77 140.34 273.74 C 132.17 270.49 124.02 267.17 115.93 263.69 C 119.21 261.06 122.61 258.58 125.80 255.86 Z" />
</g>
<g id="#684b45ff">
<path fill="#684b45" opacity="1.00" d=" M 130.87 36.17 C 140.49 34.84 150.28 34.15 159.97 35.20 C 183.06 37.39 205.69 47.32 221.91 64.07 C 233.70 76.59 238.76 94.13 239.01 111.02 C 238.90 140.33 239.16 169.64 238.38 198.94 C 237.99 207.24 237.84 215.84 234.62 223.63 C 231.43 231.20 223.21 234.72 215.76 236.64 C 198.66 239.04 181.38 239.92 164.15 240.84 C 164.21 238.48 164.18 236.09 164.66 233.77 C 172.57 230.76 180.59 227.63 187.27 222.28 C 197.42 214.60 205.43 204.35 211.26 193.08 C 218.11 194.43 225.41 192.29 230.40 187.41 C 237.77 180.56 239.33 169.64 238.43 160.08 C 238.12 155.33 234.82 151.58 230.91 149.22 C 230.08 150.79 229.28 152.37 228.47 153.95 C 226.33 158.28 223.62 162.28 221.07 166.37 C 221.20 158.52 220.97 150.20 216.60 143.36 C 212.21 135.95 204.64 130.44 196.16 128.78 C 190.76 127.93 185.28 127.64 179.87 126.83 C 158.42 124.12 136.69 123.94 115.18 126.16 C 114.82 119.97 115.00 113.77 114.90 107.58 C 110.26 113.54 107.26 120.49 104.85 127.58 C 101.27 128.31 97.55 128.15 93.99 129.05 C 83.98 131.54 75.55 139.35 72.24 149.11 C 70.29 154.43 70.46 160.18 70.59 165.75 C 68.12 161.93 66.11 157.82 64.48 153.57 C 63.88 152.02 63.31 150.45 62.75 148.89 C 57.49 149.28 53.65 153.41 52.02 158.17 C 53.16 137.02 54.87 115.81 58.99 95.00 C 62.35 79.56 69.81 64.31 82.81 54.79 C 96.80 44.42 113.75 38.66 130.87 36.17 Z" />
<path fill="#684b45" opacity="1.00" d=" M 51.80 170.73 C 53.06 175.79 54.22 181.16 57.76 185.19 C 63.28 192.01 73.69 196.26 81.75 191.29 C 92.32 208.32 106.80 223.54 125.41 231.66 C 125.58 234.76 125.79 237.86 125.84 240.97 C 110.91 240.33 96.00 239.13 81.17 237.30 C 76.67 236.82 71.85 236.63 68.00 233.96 C 61.73 229.67 57.92 222.64 55.64 215.56 C 51.70 200.97 52.05 185.71 51.80 170.73 Z" />
</g>
<g id="#fce4c5ff">
<path fill="#fce4c5" opacity="1.00" d=" M 104.85 127.58 C 107.26 120.49 110.26 113.54 114.90 107.58 C 115.00 113.77 114.82 119.97 115.18 126.16 C 136.69 123.94 158.42 124.12 179.87 126.83 C 185.28 127.64 190.76 127.93 196.16 128.78 C 204.64 130.44 212.21 135.95 216.60 143.36 C 220.97 150.20 221.20 158.52 221.07 166.37 C 219.35 173.74 216.73 180.83 214.11 187.90 C 217.67 189.64 221.77 187.74 225.05 186.17 C 233.02 182.19 234.91 172.19 234.65 164.09 C 234.63 159.78 231.98 156.19 228.47 153.95 C 229.28 152.37 230.08 150.79 230.91 149.22 C 234.82 151.58 238.12 155.33 238.43 160.08 C 239.33 169.64 237.77 180.56 230.40 187.41 C 225.41 192.29 218.11 194.43 211.26 193.08 C 205.43 204.35 197.42 214.60 187.27 222.28 C 180.59 227.63 172.57 230.76 164.66 233.77 C 164.18 236.09 164.21 238.48 164.15 240.84 C 163.90 245.83 165.05 251.03 163.83 255.88 C 158.23 260.81 153.27 266.54 150.15 273.38 C 147.92 277.13 146.58 281.28 145.06 285.35 C 143.59 281.44 142.24 277.47 140.34 273.74 C 136.99 266.77 132.27 260.23 125.80 255.86 L 125.18 255.74 C 125.75 250.84 125.90 245.90 125.84 240.97 C 125.79 237.86 125.58 234.76 125.41 231.66 C 106.80 223.54 92.32 208.32 81.75 191.29 C 73.69 196.26 63.28 192.01 57.76 185.19 C 54.22 181.16 53.06 175.79 51.80 170.73 C 51.20 166.56 51.14 162.31 52.02 158.17 C 53.65 153.41 57.49 149.28 62.75 148.89 C 63.31 150.45 63.88 152.02 64.48 153.57 C 61.31 154.67 57.85 156.22 56.60 159.62 C 54.46 166.15 55.65 173.42 58.54 179.53 C 62.33 185.77 70.39 190.90 77.69 187.62 C 79.65 186.79 78.14 184.64 77.71 183.26 C 74.80 177.64 72.96 171.59 70.59 165.75 C 70.46 160.18 70.29 154.43 72.24 149.11 C 75.55 139.35 83.98 131.54 93.99 129.05 C 97.55 128.15 101.27 128.31 104.85 127.58 Z" />
</g>
<g id="#f8c5aaff">
<path fill="#f8c5aa" opacity="1.00" d=" M 56.60 159.62 C 57.85 156.22 61.31 154.67 64.48 153.57 C 66.11 157.82 68.12 161.93 70.59 165.75 C 72.96 171.59 74.80 177.64 77.71 183.26 C 78.14 184.64 79.65 186.79 77.69 187.62 C 70.39 190.90 62.33 185.77 58.54 179.53 C 55.65 173.42 54.46 166.15 56.60 159.62 Z" />
<path fill="#f8c5aa" opacity="1.00" d=" M 221.07 166.37 C 223.62 162.28 226.33 158.28 228.47 153.95 C 231.98 156.19 234.63 159.78 234.65 164.09 C 234.91 172.19 233.02 182.19 225.05 186.17 C 221.77 187.74 217.67 189.64 214.11 187.90 C 216.73 180.83 219.35 173.74 221.07 166.37 Z" />
</g>
<g id="#fb730fff">
<path fill="#fb730f" opacity="1.00" d=" M 86.03 268.89 C 96.93 260.01 111.17 255.45 125.18 255.74 L 125.80 255.86 C 122.61 258.58 119.21 261.06 115.93 263.69 C 124.02 267.17 132.17 270.49 140.34 273.74 C 142.24 277.47 143.59 281.44 145.06 285.35 C 146.58 281.28 147.92 277.13 150.15 273.38 C 158.40 270.73 166.26 267.03 174.27 263.75 C 171.18 261.02 167.79 258.65 164.71 255.90 C 178.60 255.29 192.69 259.85 203.61 268.47 C 205.81 270.08 207.26 272.43 208.55 274.78 C 188.57 284.56 166.29 289.88 144.00 289.08 C 122.79 289.83 101.95 284.13 82.65 275.70 C 81.35 272.89 84.21 270.60 86.03 268.89 Z" />
</g>
</svg>
